<svg xmlns="http://www.w3.org/2000/svg" width="24" height="24" viewBox="0 0 24 24">
    <g fill="none" fill-rule="evenodd">
        <g>
            <g>
                <g>
                    <g>
                        <g>
                            <path d="M0 0h24v24H0V0z" transform="translate(-114.000000, -744.000000) translate(80.000000, 297.000000) translate(24.000000, 429.000000) translate(10.000000, 18.000000)"/>
                            <g>
                                <path fill-rule="nonzero" stroke="#2E3A59" stroke-dasharray="0 0" stroke-linecap="round" stroke-linejoin="round" stroke-width="1.4" d="M4 0h12c1.105 0 2 .895 2 2v10c0 1.105-.895 2-2 2H4c-1.105 0-2-.895-2-2V2c0-1.105.895-2 2-2z" transform="translate(-114.000000, -744.000000) translate(80.000000, 297.000000) translate(24.000000, 429.000000) translate(10.000000, 18.000000) translate(2.000000, 5.000000)"/>
                                <path fill="#2E3A59" d="M8.744 5.4c0-1.036-.765-1.8-1.8-1.8-1.036 0-1.8.764-1.8 1.8s.763 1.8 1.8 1.8c1.035 0 1.8-.764 1.8-1.8zM10.287 10.8H3.6c0-1.237 1.508-2.925 3.344-2.925 1.835 0 3.343 1.688 3.343 2.925zM12.7 5h2.6c.387 0 .7.313.7.7 0 .387-.313.7-.7.7h-2.6c-.387 0-.7-.313-.7-.7 0-.387.313-.7.7-.7zM12.7 9h2.6c.387 0 .7.313.7.7 0 .387-.313.7-.7.7h-2.6c-.387 0-.7-.313-.7-.7 0-.387.313-.7.7-.7z" transform="translate(-114.000000, -744.000000) translate(80.000000, 297.000000) translate(24.000000, 429.000000) translate(10.000000, 18.000000) translate(2.000000, 5.000000)"/>
                            </g>
                        </g>
                    </g>
                </g>
            </g>
        </g>
    </g>
</svg>
