<svg xmlns="http://www.w3.org/2000/svg" xmlns:xlink="http://www.w3.org/1999/xlink" width="25" height="24" viewBox="0 0 25 24">
    <defs>
        <path id="o2hjvd5kba" d="M0 0H24V24H0z"/>
    </defs>
    <g fill="none" fill-rule="evenodd">
        <g>
            <g>
                <g>
                    <g>
                        <g>
                            <g transform="translate(-34.000000, -576.000000) translate(0.000000, 70.000000) translate(24.000000, 16.000000) translate(0.000000, 472.000000) translate(10.000000, 18.000000)">
                                <mask id="0fo4ppgj2b" fill="#fff">
                                    <use xlink:href="#o2hjvd5kba"/>
                                </mask>
                                <path fill="#242629" d="M5.7 3.9c-.993 0-1.8.807-1.8 1.8v12.6c0 .993.807 1.8 1.8 1.8h7.2c.118 0 .234-.023.343-.068.109-.045.209-.111.293-.196l6.3-6.3c.078-.077.133-.168.177-.263.012-.027.02-.055.03-.084.025-.076.04-.153.045-.233.002-.02.012-.037.012-.056V5.7c0-.993-.807-1.8-1.8-1.8H5.7zm12.6 1.8V12h-5.4c-.498 0-.9.403-.9.9v5.4H5.7V5.7h12.6zm-4.5 8.1h3.227L13.8 17.027V13.8z" mask="url(#0fo4ppgj2b)"/>
                            </g>
                        </g>
                    </g>
                </g>
            </g>
        </g>
    </g>
</svg>
