<svg xmlns="http://www.w3.org/2000/svg" width="24" height="24" viewBox="0 0 24 24">
    <g fill="none" fill-rule="evenodd">
        <g>
            <g>
                <g>
                    <g>
                        <g>
                            <path d="M0 0h24v24H0V0z" opacity=".24" transform="translate(-74.000000, -767.000000) translate(40.000000, 261.000000) translate(24.000000, 488.000000) translate(10.000000, 18.000000)"/>
                            <g>
                                <path fill-rule="nonzero" stroke="#CFD7EF" stroke-dasharray="0 0" stroke-linecap="round" stroke-linejoin="round" stroke-width="1.4" d="M1.778 0C.798 0 0 .797 0 1.778v12.444C0 15.202.797 16 1.778 16h7.11c.117 0 .232-.023.34-.068.107-.044.206-.109.29-.192l6.222-6.223c.076-.076.13-.166.174-.26.012-.027.02-.054.03-.083.024-.074.04-.15.044-.23.002-.019.012-.036.012-.055V1.778C16 .798 15.203 0 14.222 0H1.778z" transform="translate(-74.000000, -767.000000) translate(40.000000, 261.000000) translate(24.000000, 488.000000) translate(10.000000, 18.000000) translate(4.000000, 4.000000)"/>
                                <path fill-rule="nonzero" stroke="#CFD7EF" stroke-dasharray="0 0" stroke-linecap="round" stroke-linejoin="round" stroke-width="1.4" d="M10 9h6l-6 6V9z" transform="translate(-74.000000, -767.000000) translate(40.000000, 261.000000) translate(24.000000, 488.000000) translate(10.000000, 18.000000) translate(4.000000, 4.000000)"/>
                                <path fill="#CFD7EF" d="M3.7 4h8.6c.387 0 .7.313.7.7 0 .387-.313.7-.7.7H3.7c-.387 0-.7-.313-.7-.7 0-.387.313-.7.7-.7zM3.7 7h2.6c.387 0 .7.313.7.7 0 .387-.313.7-.7.7H3.7c-.387 0-.7-.313-.7-.7 0-.387.313-.7.7-.7zM3.7 10h2.6c.387 0 .7.313.7.7 0 .387-.313.7-.7.7H3.7c-.387 0-.7-.313-.7-.7 0-.387.313-.7.7-.7z" transform="translate(-74.000000, -767.000000) translate(40.000000, 261.000000) translate(24.000000, 488.000000) translate(10.000000, 18.000000) translate(4.000000, 4.000000)"/>
                            </g>
                        </g>
                    </g>
                </g>
            </g>
        </g>
    </g>
</svg>
