<svg xmlns="http://www.w3.org/2000/svg" xmlns:xlink="http://www.w3.org/1999/xlink" width="20" height="20" viewBox="0 0 20 20">
    <defs>
        <path id="wecv13n8fa" d="M10 0C4.486 0 0 4.486 0 10s4.486 10 10 10 10-4.486 10-10S15.514 0 10 0z"/>
        <mask id="dhewu7t98b" width="20" height="20" x="0" y="0" fill="#fff" maskContentUnits="userSpaceOnUse" maskUnits="objectBoundingBox">
            <use xlink:href="#wecv13n8fa"/>
        </mask>
    </defs>
    <g fill="none" fill-rule="evenodd">
        <g>
            <g>
                <g transform="translate(-1009.000000, -841.000000) translate(233.000000, 826.000000) translate(768.000000, 7.000000)">
                    <g>
                        <g transform="translate(6.000000, 6.000000) translate(2.000000, 2.000000)">
                            <use fill-rule="nonzero" stroke="#2E3A59" stroke-dasharray="0 0" stroke-linecap="round" stroke-linejoin="round" stroke-width="2.8" mask="url(#dhewu7t98b)" xlink:href="#wecv13n8fa"/>
                            <path fill="#2E3A59" d="M6.734 8.851c.597 0 1.081-.484 1.081-1.08 0-.598-.484-1.082-1.08-1.082-.598 0-1.082.484-1.082 1.081s.484 1.081 1.081 1.081zM13.423 8.851c.597 0 1.081-.484 1.081-1.08 0-.598-.484-1.082-1.08-1.082-.598 0-1.082.484-1.082 1.081s.484 1.081 1.081 1.081zM9.98 15.54c2.092 0 4.097-1.07 5.244-2.845l-.908-.587c-1.054 1.63-2.981 2.54-4.911 2.318-1.505-.173-2.896-1.04-3.722-2.318l-.908.587c1 1.546 2.684 2.595 4.506 2.805.233.027.467.04.7.04z"/>
                        </g>
                    </g>
                </g>
            </g>
        </g>
    </g>
</svg>
