<svg xmlns="http://www.w3.org/2000/svg" width="22" height="20" viewBox="0 0 22 20">
    <g fill="none" fill-rule="evenodd">
        <g>
            <g>
                <g>
                    <g>
                        <path fill-rule="nonzero" stroke="#2E3A59" stroke-dasharray="0 0" stroke-linecap="round" stroke-linejoin="round" stroke-width="1.47" d="M12 21l8.192-8.313c2.562-3.387 2.401-6.234-.482-8.541-2.516-2.014-5.497-1.373-8.942 1.922L4.25 12.351c-.952 1.09-1.54 1.88-1.764 2.374-.965 2.124-.375 3.891.736 4.982 1.043 1.024 2.991 1.684 4.965.677.57-.29 1.655-1.304 3.255-3.04l5.622-6.017c1.402-1.49 1.573-2.74.514-3.748-1.059-1.009-2.281-.837-3.667.514L6.46 15.385" transform="translate(-1049.000000, -841.000000) translate(233.000000, 826.000000) translate(810.000000, 7.000000) translate(5.000000, 6.000000)"/>
                    </g>
                </g>
            </g>
        </g>
    </g>
</svg>
