<svg xmlns="http://www.w3.org/2000/svg" width="26" height="26" viewBox="0 0 26 26">
    <g fill="none" fill-rule="evenodd">
        <g>
            <g>
                <g transform="translate(-814.000000, -393.000000) translate(760.000000, 339.000000) translate(54.000000, 54.000000)">
                    <circle cx="12.876" cy="12.876" r="12.476" fill="#FFF" fill-opacity=".8" stroke="#817AB3" stroke-width=".8"/>
                    <g transform="translate(5.942857, 6.933333)">
                        <path fill="#343434" fill-rule="nonzero" d="M12.307 1.698l-1.872-.16c-.258 0-.82-.203-.902-.452L9.335.453C9.253.203 8.976 0 8.719 0H5.148c-.257 0-.535.204-.616.453l-.199.633c-.081.249-.644.612-.901.612H1.56C.702 1.698 0 2.255 0 3.131v7.163c0 .875.702 1.592 1.56 1.592h10.747c.858 0 1.56-.717 1.56-1.592V3.13c0-.876-.702-1.433-1.56-1.433z"/>
                        <path fill="#FFF" fill-rule="nonzero" d="M11.39 4.952c-.273 0-.495-.221-.495-.495 0-.273.222-.495.495-.495.274 0 .496.222.496.495 0 .274-.222.495-.496.495z"/>
                        <circle cx="6.933" cy="6.933" r="2.611" stroke="#FFF" stroke-width=".72"/>
                    </g>
                </g>
            </g>
        </g>
    </g>
</svg>
