<svg xmlns="http://www.w3.org/2000/svg" width="25" height="24" viewBox="0 0 25 24">
    <g fill="none" fill-rule="evenodd">
        <g>
            <g>
                <g>
                    <g>
                        <g>
                            <g>
                                <path d="M0 0H24V24H0z" transform="translate(-34.000000, -340.000000) translate(0.000000, 70.000000) translate(24.000000, 16.000000) translate(0.000000, 236.000000) translate(10.000000, 18.000000)"/>
                                <path fill-rule="nonzero" stroke="#242629" stroke-width="2" d="M12 21c4.97 0 9-4.03 9-9s-4.03-9-9-9-9 4.03-9 9 4.03 9 9 9z" transform="translate(-34.000000, -340.000000) translate(0.000000, 70.000000) translate(24.000000, 16.000000) translate(0.000000, 236.000000) translate(10.000000, 18.000000)"/>
                                <path stroke="#242629" stroke-width="2" d="M12 4L12 13 14.766 20.2M12 12.096L21 10" transform="translate(-34.000000, -340.000000) translate(0.000000, 70.000000) translate(24.000000, 16.000000) translate(0.000000, 236.000000) translate(10.000000, 18.000000)"/>
                            </g>
                        </g>
                    </g>
                </g>
            </g>
        </g>
    </g>
</svg>
