<svg xmlns="http://www.w3.org/2000/svg" width="24" height="24" viewBox="0 0 24 24">
    <g fill="none" fill-rule="evenodd">
        <g>
            <g>
                <g>
                    <g>
                        <g>
                            <path d="M0 0h24v24H0V0z" transform="translate(-74.000000, -295.000000) translate(40.000000, 261.000000) translate(24.000000, 16.000000) translate(10.000000, 18.000000)"/>
                            <g stroke-dasharray="0 0" stroke-linecap="round" stroke-linejoin="round">
                                <path fill-rule="nonzero" stroke="#CFD7EF" stroke-width="1.4" d="M2 0h12c1.105 0 2 .895 2 2v8c0 1.105-.895 2-2 2H4.877L0 14V2C0 .895.895 0 2 0z" transform="translate(-74.000000, -295.000000) translate(40.000000, 261.000000) translate(24.000000, 16.000000) translate(10.000000, 18.000000) translate(4.000000, 5.000000)"/>
                                <path fill="#CFD7EF" d="M5.7 5h4.6c.387 0 .7.313.7.7 0 .387-.313.7-.7.7H5.7c-.387 0-.7-.313-.7-.7 0-.387.313-.7.7-.7z" transform="translate(-74.000000, -295.000000) translate(40.000000, 261.000000) translate(24.000000, 16.000000) translate(10.000000, 18.000000) translate(4.000000, 5.000000)"/>
                            </g>
                        </g>
                    </g>
                </g>
            </g>
        </g>
    </g>
</svg>
