<svg xmlns="http://www.w3.org/2000/svg" width="32" height="32" viewBox="0 0 32 32">
    <g fill="none" fill-rule="evenodd">
        <g>
            <g>
                <g>
                    <g>
                        <path fill="#61666D" d="M3.196 1.73C3.249.915 2.803.568 1.856.689c-1.42.183.4 3.221.878 3.225.478.003 2.954-.745 2.496-1.974-.306-.82-.984-.889-2.034-.208z" transform="translate(-98.000000, -75.000000) translate(98.000000, 75.000000) translate(3.000000, 3.000000) translate(3.304914, 2.288621) rotate(-20.000000) translate(-3.304914, -2.288621)"/>
                        <path fill="#61666D" d="M23.69 1.288c.05-.733-.347-1.044-1.19-.933-1.266.168.348 2.893.774 2.895.426.002 2.632-.677 2.227-1.78-.27-.735-.873-.795-1.81-.182z" transform="translate(-98.000000, -75.000000) translate(98.000000, 75.000000) translate(3.000000, 3.000000) translate(23.787320, 1.791377) rotate(-10.000000) translate(-23.787320, -1.791377)"/>
                        <g>
                            <path fill="#FFF" stroke="#9098A3" stroke-width="1.08" d="M2.897 3.395C-.086 6.912-.178 11.603 2.263 15.97c.313.56 1.197 1.378 2.39 1.942 1.79.847 4.056 1.074 6.83.445 4.474-1.014 6.65-3.24 7.243-6.254.261-1.326.129-2.59-.358-4.146-.204-.653-.233-.731-.92-2.517C15.925 1.479 12.664-.044 7.995.728 5.6 1.31 3.905 2.207 2.897 3.395z" transform="translate(-98.000000, -75.000000) translate(98.000000, 75.000000) translate(3.000000, 3.000000) translate(13.837651, 14.755845) rotate(10.000000) translate(-13.837651, -14.755845) translate(4.087651, 5.110683)"/>
                            <path stroke="#61666D" stroke-dasharray=".298 .994" stroke-width=".5" d="M4.044 4.458c-2.637 3.114-2.371 7.078-.543 10.354.337.605.919 1.304 1.53 1.656 1.709.983 4.323.74 6.16.425.827-.142 2.143-.85 2.557-1.135 1.703-1.176 3.056-2.145 3.442-4.107.386-1.966-.316-3.626-1.022-5.466-1.333-3.472-4.235-4.568-7.905-3.96-1.957.478-3.363 1.222-4.219 2.233z" opacity=".5" transform="translate(-98.000000, -75.000000) translate(98.000000, 75.000000) translate(3.000000, 3.000000) translate(13.837651, 14.755845) rotate(10.000000) translate(-13.837651, -14.755845) translate(4.087651, 5.110683)"/>
                            <path stroke="#9098A3" stroke-linecap="round" stroke-linejoin="round" stroke-width="1.08" d="M6.541 7.002l.06.694-.06-.694zM9.73 6.028l.318.694" transform="translate(-98.000000, -75.000000) translate(98.000000, 75.000000) translate(3.000000, 3.000000) translate(13.837651, 14.755845) rotate(10.000000) translate(-13.837651, -14.755845) translate(4.087651, 5.110683)"/>
                            <path fill="#FFF" stroke="#9098A3" stroke-width="1.08" d="M9.88 13.279c1.342-.273 1.109-2.594.915-3.163-.193-.57-.876-1.124-1.912-.944-1.035.179-1.287 1.037-1.287 1.498 0 .46.94 2.88 2.284 2.609z" transform="translate(-98.000000, -75.000000) translate(98.000000, 75.000000) translate(3.000000, 3.000000) translate(13.837651, 14.755845) rotate(10.000000) translate(-13.837651, -14.755845) translate(4.087651, 5.110683)"/>
                        </g>
                        <g fill="#FFF" stroke="#9098A3" stroke-linecap="round" stroke-linejoin="round" stroke-width="1.08">
                            <path d="M5.155 12.73l-1.42-2.18C2.044 9.72.07 7.186.106 6.556.019 2.713.799 2.466 5.156.24c1.078-.55 1.986-.086 1.846.656-.086.462-.775 1.38-1.108 1.657-6.372 5.286.18-.73-3.017 2.207 0-2.907 1.27-3.004 2.857-.754C7 5.672 7.066 6.9 6.289 9.57l.712 1.11" transform="translate(-98.000000, -75.000000) translate(98.000000, 75.000000) translate(3.000000, 3.000000) translate(0.000000, 4.531120)"/>
                            <path d="M3.387 5.327C1.858 4.187 1.242 3.67.189 2.009-.153 1.469.279.447.965.385c.744-.067 1.99.783 2.422 1.169.817.729 1.53 1.563 2.295 2.344" transform="translate(-98.000000, -75.000000) translate(98.000000, 75.000000) translate(3.000000, 3.000000) translate(0.000000, 4.531120)"/>
                        </g>
                        <g fill="#FFF" stroke="#9098A3" stroke-linecap="round" stroke-linejoin="round" stroke-width="1.08">
                            <path d="M3.748 10.265L2.73 7.558C1.48 7.515.673 6.482.308 4.46 0 2.793.598 1.766 3.76.173c.782-.394 1.171.022 1.34.47.4 1.059-.674.774-2.995 2.877.59-1.559 1.27-1.802 2.037-.727.828.822 1.255 2.528.432 3.792l.747 1.723" transform="translate(-98.000000, -75.000000) translate(98.000000, 75.000000) translate(3.000000, 3.000000) translate(23.205513, 9.218210) scale(-1, 1) translate(-23.205513, -9.218210) translate(20.507400, 4.066136)"/>
                            <path d="M2.477 3.816C1.367 3 .92 2.63.155 1.44-.093 1.052.221.32.72.276c.54-.048 1.444.56 1.758.837.593.522 1.11 1.12 1.666 1.68" transform="translate(-98.000000, -75.000000) translate(98.000000, 75.000000) translate(3.000000, 3.000000) translate(23.205513, 9.218210) scale(-1, 1) translate(-23.205513, -9.218210) translate(20.507400, 4.066136)"/>
                        </g>
                    </g>
                </g>
            </g>
        </g>
    </g>
</svg>
