<svg width="32" height="32" xmlns="http://www.w3.org/2000/svg">
    <g fill="none" fill-rule="evenodd">
        <g transform="translate(9 4)">
            <path d="M18.3 13.923V6.5A5.8 5.8 0 0 0 12.5.7h-6a5.8 5.8 0 1 0 0 11.6h8.149l3.651 1.623z" stroke="#2E3A59" stroke-width="1.4" fill="#7294FF"/>
            <circle fill="#2E3A59" cx="5.5" cy="6.5" r="1.5"/>
            <circle fill="#2E3A59" cx="9.5" cy="6.5" r="1.5"/>
            <circle fill="#2E3A59" cx="13.5" cy="6.5" r="1.5"/>
        </g>
        <g transform="matrix(-1 0 0 1 23 14)">
            <path d="M18.3 12.867V6A5.3 5.3 0 0 0 13 .7H6a5.3 5.3 0 0 0 0 10.6h9.165l3.135 1.567z" stroke="#2E3A59" stroke-width="1.4" fill="#FFB153"/>
            <circle fill="#2E3A59" cx="5.5" cy="5.5" r="1.5"/>
            <circle fill="#2E3A59" cx="9.5" cy="5.5" r="1.5"/>
            <circle fill="#2E3A59" cx="13.5" cy="5.5" r="1.5"/>
        </g>
    </g>
</svg>
