<svg xmlns="http://www.w3.org/2000/svg" width="54" height="54" viewBox="0 0 54 54">
    <g fill="none" fill-rule="evenodd">
        <g>
            <g>
                <g>
                    <g>
                        <path stroke="#B6BBC1" stroke-linecap="round" stroke-linejoin="round" d="M46 27.39V36c0 4.97-4.03 9-9 9H17c-4.97 0-9-4.03-9-9V18c0-4.97 4.03-9 9-9h7.802" transform="translate(-573.000000, -1050.000000) translate(510.000000, 1018.000000) translate(63.000000, 32.000000)"/>
                        <g stroke="#B6BBC1" stroke-linecap="round" stroke-linejoin="round">
                            <path d="M0 0l9.417 10.36" transform="translate(-573.000000, -1050.000000) translate(510.000000, 1018.000000) translate(63.000000, 32.000000) translate(36.000000, 9.000000)"/>
                            <path d="M0 0l9.417 10.36" transform="translate(-573.000000, -1050.000000) translate(510.000000, 1018.000000) translate(63.000000, 32.000000) translate(36.000000, 9.000000) translate(4.708710, 5.179581) scale(-1, 1) translate(-4.708710, -5.179581)"/>
                        </g>
                    </g>
                </g>
            </g>
        </g>
    </g>
</svg>
