<svg xmlns="http://www.w3.org/2000/svg" width="16" height="16" viewBox="0 0 16 16">
    <g fill="none" fill-rule="evenodd">
        <g>
            <g>
                <g>
                    <g>
                        <g fill="#2E3A59">
                            <path d="M2.046 2.794h-.887c-.245 0-.444.194-.444.433s.199.433.444.433h.887c.245 0 .443-.194.443-.433 0-.24-.198-.433-.443-.433zM1.996 5.318l-.887-.577c-.204-.132-.48-.078-.615.122-.136.199-.08.467.124.6l.887.577c.204.132.48.078.615-.122.135-.199.08-.467-.124-.6zM.854 1.764c.084 0 .166-.023.237-.066l.916-.577c.139-.08.222-.229.216-.386-.005-.157-.098-.3-.242-.371-.144-.072-.316-.061-.45.027L.615.968c-.168.103-.245.302-.19.488.056.186.231.313.43.311v-.003z" transform="translate(-1050.000000, -280.000000) translate(1050.000000, 280.000000) translate(12.240000, 5.100000)"/>
                        </g>
                        <path fill-rule="nonzero" stroke="#2E3A59" stroke-dasharray="0 0" stroke-linecap="round" stroke-linejoin="round" stroke-width=".952" d="M2.72 5.44h.68c.376 0 .68.304.68.68v4.08c0 .376-.304.68-.68.68h-.68c-.376 0-.68-.304-.68-.68V6.12c0-.376.304-.68.68-.68zM10.2 3.4h.68c.376 0 .68.304.68.68v8.16c0 .376-.304.68-.68.68h-.68c-.376 0-.68-.304-.68-.68V4.08c0-.376.304-.68.68-.68zM4.08 6.12l5.44-2.04v8.16L4.08 10.2V6.12z" transform="translate(-1050.000000, -280.000000) translate(1050.000000, 280.000000)"/>
                    </g>
                </g>
            </g>
        </g>
    </g>
</svg>
