<svg xmlns="http://www.w3.org/2000/svg" width="32" height="32" viewBox="0 0 32 32">
    <defs>
        <filter id="acnut0xl1a" width="220%" height="220%" x="-60%" y="-60%" filterUnits="objectBoundingBox">
            <feGaussianBlur in="SourceGraphic" stdDeviation="1"/>
        </filter>
        <filter id="c4pgpg4ijb" width="220%" height="220%" x="-60%" y="-60%" filterUnits="objectBoundingBox">
            <feGaussianBlur in="SourceGraphic" stdDeviation="1"/>
        </filter>
    </defs>
    <g fill="none" fill-rule="evenodd">
        <g>
            <g>
                <g transform="translate(-168.000000, -181.000000) translate(168.000000, 181.000000)">
                    <path fill="#FFF" stroke="#61666D" stroke-linecap="round" stroke-linejoin="round" stroke-width="2" d="M24.525 11.325C26.029 13.28 27 15.585 27 17.783c0 3.67-2.706 6.095-6.08 7.262L22.627 28H10.854l1.231-2.649C8.26 24.34 5 21.811 5 17.783c0-2.198.971-4.503 2.475-6.458-.336-3.957.046-6.322 1.146-7.094 1.288-.905 2.835 1.001 3.657 3.105 1.217-.589 2.486-.927 3.722-.927 1.236 0 2.505.338 3.722.927.822-2.104 2.369-4.01 3.657-3.105 1.1.772 1.482 3.137 1.146 7.094z"/>
                    <circle cx="10.5" cy="18.5" r="2.5" fill="#FFCAAE" filter="url(#acnut0xl1a)"/>
                    <circle cx="21.5" cy="18.5" r="2.5" fill="#FFCAAE" filter="url(#c4pgpg4ijb)"/>
                    <path fill="#61666D" d="M16.768 17.322l.865 1.038c.354.424.296 1.055-.128 1.408-.18.15-.406.232-.64.232h-1.73c-.552 0-1-.448-1-1 0-.234.082-.46.232-.64l.865-1.038c.353-.424.984-.482 1.408-.128.047.039.09.081.128.128z" transform="translate(16.000000, 18.500000) scale(1, -1) translate(-16.000000, -18.500000)"/>
                    <ellipse cx="12" cy="14.5" fill="#61666D" rx="1" ry="1.5"/>
                    <ellipse cx="20" cy="14.5" fill="#61666D" rx="1" ry="1.5"/>
                    <g stroke="#61666D" stroke-linecap="round" stroke-linejoin="round" stroke-width="1.4">
                        <path d="M0 1.747L3.598 0" transform="translate(24.351667, 14.252734)"/>
                        <path d="M0 7.495l3.598-1.748" transform="translate(24.351667, 14.252734) translate(1.799101, 6.620899) scale(1, -1) translate(-1.799101, -6.620899)"/>
                        <path d="M.648 3.747h4" transform="translate(24.351667, 14.252734)"/>
                    </g>
                    <g stroke="#61666D" stroke-linecap="round" stroke-linejoin="round" stroke-width="1.4">
                        <path d="M0 1.747L3.598 0" transform="translate(4.851667, 18.252734) scale(-1, 1) translate(-4.851667, -18.252734) translate(2.351667, 14.252734)"/>
                        <path d="M0 7.495l3.598-1.748" transform="translate(4.851667, 18.252734) scale(-1, 1) translate(-4.851667, -18.252734) translate(2.351667, 14.252734) translate(1.799101, 6.620899) scale(1, -1) translate(-1.799101, -6.620899)"/>
                        <path d="M.648 3.747h4" transform="translate(4.851667, 18.252734) scale(-1, 1) translate(-4.851667, -18.252734) translate(2.351667, 14.252734)"/>
                    </g>
                </g>
            </g>
        </g>
    </g>
</svg>
