<svg xmlns="http://www.w3.org/2000/svg" width="193" height="190" viewBox="0 0 193 190">
    <g fill="none" fill-rule="evenodd">
        <g>
            <g>
                <g transform="translate(-703.000000, -212.000000) translate(700.000000, 207.000000)">
                    <circle cx="98" cy="100" r="95" fill="#FFF8CA"/>
                    <g>
                        <path fill="#FFDDC6" stroke="#E4BDA2" d="M108.68 83.703L95.065 106.43c15.01 8.063 27.93 9.982 38.784 5.797 10.74-4.14 10.74-20.574-.286-49.43l-8.433-21.714c-6.713-1.289-9.885-.387-9.885 2.492 0 3.354.87 17.239 2.605 41.606l.039.536h-.537c-2.278 0-5.165-.674-8.672-2.015zM42.086 50.34v12.184c-1.89 2.666-4.394 4.318-7.514 4.956-4.68.958 12.102 9.281 18.382 9.281 6.28 0 16.202-7.189 16.202-10.64l-9.221-2.356c-2.174-1.574 0-7.335 0-10.38 0-2.03-5.95-3.046-17.849-3.046z" transform="translate(42.000000, 25.000000)"/>
                        <path fill="#FFDDC6" stroke="#E4BDA2" d="M64.973 21.855c7.993 19.667 6.723 30.754-3.81 33.26-10.532 2.507-20.683-1.804-30.451-12.933 1.833-16.966 4.496-26.592 7.987-28.876 3.49-2.284 12.249.566 26.274 8.55z" transform="translate(42.000000, 25.000000)"/>
                        <path fill="#322929" stroke="#1F1919" d="M65.683 22.358c-6.727-.953-11.812-.953-15.254 0-3.443.953-1.486 11.364-8.91 17.658L40.186 50.34C25.965 49.017 19.85 40.023 21.843 23.356 23.835 6.689 34.22-1.058 53 .116c8.455 1.633 14.17 4.834 17.146 9.602 2.976 4.767 1.488 8.98-4.463 12.64z" transform="translate(42.000000, 25.000000)"/>
                        <g>
                            <g transform="translate(42.000000, 25.000000) translate(57.662109, 19.349522) translate(25.235294, 0.000000)">
                                <path fill="#282830" stroke="#000" d="M61.04 27.046c2.595-.926 3.245-5.632 2.29-12.967-.272-2.095-.663-4.319-1.154-6.67-.408-1.957-1.288-5.658-1.522-6.675-.12-.019-.29-.032-.504-.039-.581-.018-1.46.014-2.63.095-2.361.165-5.894.533-10.595 1.103-9.412 1.142-23.5 3.096-42.337 5.865C2.381 7.758.5 10.542.5 14.047c0 3.504 1.881 6.288 4.088 6.288l.06.003 56.392 6.708z"/>
                                <ellipse cx="59.647" cy="13.778" fill="#000" rx="11.471" ry="13.778"/>
                                <ellipse cx="59.647" cy="13.778" fill="#E9FFFF" rx="9.176" ry="11.481"/>
                            </g>
                            <g transform="translate(42.000000, 25.000000) translate(57.662109, 19.349522) translate(-0.000000, 0.000000)">
                                <path fill="#282830" stroke="#000" d="M61.04 27.046c2.595-.926 3.245-5.632 2.29-12.967-.272-2.095-.663-4.319-1.154-6.67-.408-1.957-1.288-5.658-1.522-6.675-.12-.019-.29-.032-.504-.039-.581-.018-1.46.014-2.63.095-2.361.165-5.894.533-10.595 1.103-9.412 1.142-23.5 3.096-42.337 5.865C2.381 7.758.5 10.542.5 14.047c0 3.504 1.881 6.288 4.088 6.288l.06.003 56.392 6.708z"/>
                                <ellipse cx="59.647" cy="13.778" fill="#000" rx="11.471" ry="13.778"/>
                                <ellipse cx="59.647" cy="13.778" fill="#E9FFFF" rx="9.176" ry="11.481"/>
                            </g>
                        </g>
                        <path fill="#7490E0" stroke="#5166A4" d="M36.736 67.056C13.838 71.58 2.444 85.212 2.443 108.088l-1.31 42.978c31.249 20.959 64.33 23.338 99.308 7.139 1.316-22.548.327-39.216-2.954-49.986l-.084-.274.194-.21c9.503-10.308 13.655-18.665 12.524-25.03-15.056-9.742-29.709-15.61-43.96-17.608-.349 4.634-4.834 6.92-13.207 6.92-8.39 0-13.805-1.628-16.218-4.96z" transform="translate(42.000000, 25.000000)"/>
                        <path fill="#FFDDC6" stroke="#E4BDA2" d="M42.795 91.094c-1.04 4.694-2.34 8.516-3.905 11.47-1.63 3.074-5.662 7.173-12.112 12.337 11.594 13.454 25.36 20.405 41.327 20.878 15.863.47 26.959-25.78 33.01-78.858l.033-.13c1.41-3.514 2.165-7.192 2.268-11.037.008-.297-.026-.57-.11-.972l-.058-.266c-.139-.634-.192-.989-.192-1.471 0-6.484.323-9.058 1.438-10.695.457-.671.39-1.126-.043-1.376-.35-.202-1.004.093-1.631 1.005-.52.754-1.478 2.939-2.842 6.5l-.956-.285c.852-3.93 1.558-6.539 2.131-7.853.746-1.708.746-2.368.198-2.702-.24-.147-.72.154-1.433 1.186-.908 1.27-2.009 4.346-3.266 9.174l-.98-.18c.29-2.653.877-4.841 1.732-6.88.39-.93 1.533-3.202 1.654-3.508.3-.755.263-1.117-.164-1.53l-.066-.06c-.356-.318-.763-.26-1.304.16-.458.358-.927.937-1.247 1.469-.637 1.058-1.62 4.504-2.905 10.238l-.983-.18c.696-4.842 1.192-7.724 1.502-8.706.43-1.36.343-1.905-.328-2.212-.648-.297-1.437.34-1.802 1.57-.485 1.635-.887 4.01-1.375 7.767-.018.143-.539 4.272-.685 5.328-.343 2.485-.621 3.885-.96 4.541-.32.62-.93.799-1.38.217-.256-.332-.485-.968-.73-1.982-.749-3.097-1.493-5.218-2.212-6.34-.586-.914-.966-1.031-1.448-.552-1.774 2.866-1.392 5.352.798 8.721.516.794.508.782 2.17 3.05 4.386 5.984 5.54 9.614 3.074 14.892-3.802 8.139-12.732 21.504-26.8 40.12l-.29.382-19.128-13.23z" transform="translate(42.000000, 25.000000)"/>
                        <path fill="#FFDDC6" d="M45.866 36.599c-1.199-4.825-2.935-6.27-5.208-4.332-3.41 2.905.05 8.962 1.761 8.962" transform="translate(42.000000, 25.000000)"/>
                        <path stroke="#E4BDA2" stroke-linecap="round" stroke-linejoin="round" d="M117.856 85.319l1.424 6.953M62 104l-2.627 4.108" transform="translate(42.000000, 25.000000)"/>
                    </g>
                    <path fill="#FFF" stroke="#5166A4" d="M92.5 58.788c-.06.107-.122.23-.186.363-.279.59-.529 1.301-.674 1.957-.349 1.573-.082 2.392.86 2.392s1.209-.819.86-2.392c-.145-.656-.395-1.366-.674-1.957-.064-.134-.127-.256-.186-.363zM88.684 65.78c-.082.147-.17.324-.26.521-.317.695-.6 1.53-.765 2.303-.4 1.88-.082 2.896 1.025 2.896s1.426-1.016 1.025-2.896c-.165-.772-.448-1.608-.764-2.303-.09-.197-.179-.374-.26-.521z"/>
                    <path fill="#7490E0" stroke="#5166A4" d="M84.538 112.192l8.986 7.25c-1.066 15.834-7.525 25.554-19.378 29.16l-8.38-5.003"/>
                    <path stroke="#FFF" stroke-linecap="round" stroke-linejoin="round" stroke-width="2" d="M189.143 51.43c1.622 1.947 2.433 4.529 2.433 7.745M163 51c1.622 1.947 2.433 4.529 2.433 7.745"/>
                </g>
            </g>
        </g>
    </g>
</svg>
