<svg xmlns="http://www.w3.org/2000/svg" width="24" height="24" viewBox="0 0 24 24">
    <g fill="none" fill-rule="evenodd">
        <g>
            <g>
                <g>
                    <g>
                        <g>
                            <path d="M0 0h24v24H0V0z" transform="translate(-339.000000, -390.000000) translate(305.000000, 297.000000) translate(24.000000, 75.000000) translate(10.000000, 18.000000)"/>
                            <g fill-rule="nonzero" stroke="#3B4EB6" stroke-dasharray="0 0" stroke-linecap="round" stroke-linejoin="round" stroke-width="1.4">
                                <path d="M9 14c-.414.617-1.176.996-2 .996-.824 0-1.586-.38-2-.996h4zM14 11H0c1.16 0 2.1-.985 2.1-2.2V5.133C2.1 2.298 4.294 0 7 0c2.706 0 4.9 2.298 4.9 5.133V8.8c0 1.215.94 2.2 2.1 2.2h0z" transform="translate(-339.000000, -390.000000) translate(305.000000, 297.000000) translate(24.000000, 75.000000) translate(10.000000, 18.000000) translate(5.000000, 4.000000)"/>
                            </g>
                        </g>
                    </g>
                </g>
            </g>
        </g>
    </g>
</svg>
