<svg xmlns="http://www.w3.org/2000/svg" xmlns:xlink="http://www.w3.org/1999/xlink" width="112" height="90" viewBox="0 0 112 90">
    <defs>
        <filter id="8cy4cnj3la" width="134%" height="123%" x="-17%" y="-8.8%" filterUnits="objectBoundingBox">
            <feOffset dy="2" in="SourceAlpha" result="shadowOffsetOuter1"/>
            <feGaussianBlur in="shadowOffsetOuter1" result="shadowBlurOuter1" stdDeviation="2.5"/>
            <feComposite in="shadowBlurOuter1" in2="SourceAlpha" operator="out" result="shadowBlurOuter1"/>
            <feColorMatrix in="shadowBlurOuter1" values="0 0 0 0 0 0 0 0 0 0 0 0 0 0 0 0 0 0 0.3 0"/>
        </filter>
        <rect id="mufbe588wb" width="50" height="74" x="22" y="0" rx="8"/>
    </defs>
    <g fill="none" fill-rule="evenodd">
        <g>
            <g>
                <g>
                    <g transform="translate(-124.000000, -288.000000) translate(124.000000, 288.000000) translate(10.000000, 8.000000)">
                        <g stroke="#000" transform="translate(0.000000, 48.000000)">
                            <circle cx="9.5" cy="9.5" r="9.5" fill="#FFDF00"/>
                            <circle cx="9.5" cy="9.5" r="6.808"/>
                        </g>
                        <g stroke="#000" transform="translate(75.000000, 48.000000)">
                            <circle cx="9.5" cy="9.5" r="9.5" fill="#FFDF00"/>
                            <circle cx="9.5" cy="9.5" r="6.808"/>
                        </g>
                        <circle cx="22" cy="57" r="12" fill="#FFDF00" stroke="#000"/>
                        <circle cx="22" cy="57" r="8.731" stroke="#000"/>
                        <circle cx="72" cy="57" r="12" fill="#FFDF00" stroke="#000"/>
                        <circle cx="72" cy="57" r="8.731" stroke="#000"/>
                        <g>
                            <use fill="#000" filter="url(#8cy4cnj3la)" xlink:href="#mufbe588wb"/>
                            <rect width="49" height="73" x="22.5" y=".5" fill="#FFF" stroke="#4A4097" stroke-linejoin="square" rx="8"/>
                        </g>
                        <rect width="38" height="60" x="28" y="7" fill="#F0F0F5" rx="4"/>
                        <path fill="#000" d="M79 1H80V29H79z"/>
                        <rect width="10" height="17" x="74.5" y="6.5" fill="#FF4949" stroke="#000" rx="2"/>
                        <path fill="#000" d="M31 34H32V62H31z"/>
                        <rect width="10" height="17" x="26.5" y="39.5" fill="#497FFF" stroke="#000" rx="2"/>
                        <path fill="#000" d="M47 12H48V40H47z"/>
                        <rect width="10" height="17" x="42.5" y="17.5" fill="#FF4949" stroke="#000" rx="2"/>
                        <path fill="#000" d="M15 7H16V35H15z"/>
                        <rect width="10" height="17" x="10.5" y="12.5" fill="#FF4949" stroke="#000" rx="2"/>
                        <path fill="#000" d="M63 28H64V56H63z"/>
                        <rect width="10" height="17" x="58.5" y="33.5" fill="#497FFF" stroke="#000" rx="2"/>
                    </g>
                </g>
            </g>
        </g>
    </g>
</svg>
