<svg xmlns="http://www.w3.org/2000/svg" xmlns:xlink="http://www.w3.org/1999/xlink" width="25" height="24" viewBox="0 0 25 24">
    <defs>
        <path id="vfekggs1ra" d="M0 0H24V24H0z"/>
    </defs>
    <g fill="none" fill-rule="evenodd">
        <g>
            <g>
                <g>
                    <g>
                        <g>
                            <g transform="translate(-34.000000, -458.000000) translate(0.000000, 70.000000) translate(24.000000, 16.000000) translate(0.000000, 354.000000) translate(10.000000, 18.000000)">
                                <mask id="iux6jg2flb" fill="#fff">
                                    <use xlink:href="#vfekggs1ra"/>
                                </mask>
                                <path fill="#242629" d="M7.5 7.95c0 2.481 2.019 4.5 4.5 4.5s4.5-2.019 4.5-4.5-2.019-4.5-4.5-4.5-4.5 2.019-4.5 4.5zm1.8 0c0-1.489 1.211-2.7 2.7-2.7s2.7 1.211 2.7 2.7-1.211 2.7-2.7 2.7-2.7-1.211-2.7-2.7zm10.8 11.7c0-3.473-2.827-6.3-6.3-6.3h-3.6c-3.474 0-6.3 2.827-6.3 6.3v.9h1.8v-.9c0-2.481 2.019-4.5 4.5-4.5h3.6c2.481 0 4.5 2.019 4.5 4.5v.9h1.8v-.9z" mask="url(#iux6jg2flb)"/>
                            </g>
                        </g>
                    </g>
                </g>
            </g>
        </g>
    </g>
</svg>
