<svg xmlns="http://www.w3.org/2000/svg" width="20" height="22" viewBox="0 0 20 22">
    <g fill="none" fill-rule="evenodd">
        <g>
            <g>
                <g>
                    <path fill-rule="nonzero" stroke="#2E3A59" stroke-dasharray="0 0" stroke-linecap="round" stroke-linejoin="round" stroke-width="1.4" d="M20.807 7.624l-.623-1.08c-.526-.914-1.693-1.23-2.608-.705h0c-.436.256-.956.33-1.445.202-.49-.127-.908-.444-1.164-.88-.165-.277-.253-.593-.256-.915h0c.014-.517-.18-1.018-.541-1.388-.36-.371-.855-.58-1.373-.58h-1.254c-.506 0-.992.202-1.349.56-.357.36-.557.847-.554 1.353h0c-.015 1.046-.868 1.886-1.913 1.886-.323-.004-.639-.092-.916-.257h0c-.915-.524-2.082-.209-2.608.705l-.669 1.099c-.526.912-.215 2.079.696 2.608h0c.592.342.957.974.957 1.657s-.365 1.315-.957 1.657h0c-.91.526-1.22 1.69-.696 2.6h0l.632 1.089c.247.445.66.773 1.15.912.49.14 1.015.078 1.459-.171h0c.436-.255.956-.324 1.444-.194s.904.451 1.155.89c.165.277.253.593.256.915h0c0 1.057.857 1.913 1.913 1.913h1.254c1.053 0 1.908-.85 1.914-1.904h0c-.003-.508.198-.996.557-1.355.36-.36.847-.56 1.356-.558.321.009.636.097.915.256h0c.913.526 2.079.215 2.609-.695h0l.659-1.099c.255-.438.325-.959.194-1.449-.13-.49-.45-.907-.89-1.16h0c-.44-.252-.76-.67-.89-1.16-.13-.489-.06-1.01.194-1.448.166-.29.406-.53.696-.696h0c.905-.53 1.215-1.689.696-2.6h0v-.008z" transform="translate(-1534.000000, -253.000000) translate(1532.000000, 252.000000)"/>
                    <path fill-rule="nonzero" stroke="#2E3A59" stroke-dasharray="0 0" stroke-linecap="round" stroke-linejoin="round" stroke-width="1.4" d="M12.175 14.525c1.456 0 2.636-1.18 2.636-2.636 0-1.456-1.18-2.636-2.636-2.636-1.456 0-2.636 1.18-2.636 2.636 0 1.456 1.18 2.636 2.636 2.636z" transform="translate(-1534.000000, -253.000000) translate(1532.000000, 252.000000)"/>
                </g>
            </g>
        </g>
    </g>
</svg>
