<svg xmlns="http://www.w3.org/2000/svg" width="32" height="32" viewBox="0 0 32 32">
    <defs>
        <filter id="ny14hfr0xa" width="232%" height="379.2%" x="-66%" y="-139.6%" filterUnits="objectBoundingBox">
            <feGaussianBlur in="SourceGraphic" stdDeviation=".65"/>
        </filter>
        <filter id="rvlxu2kqhb" width="232%" height="379.2%" x="-66%" y="-139.6%" filterUnits="objectBoundingBox">
            <feGaussianBlur in="SourceGraphic" stdDeviation=".65"/>
        </filter>
    </defs>
    <g fill="none" fill-rule="evenodd">
        <g>
            <g>
                <g>
                    <g transform="translate(-99.000000, -21.000000) translate(99.000000, 21.000000) translate(4.000000, 4.000000)">
                        <path fill="#FFF" stroke="#9098A3" stroke-linecap="round" stroke-linejoin="round" stroke-width="1.17" d="M1.322 15.203c1.386 5.19 4.952 8.794 10.225 8.794 4.734 0 7.949-2.392 9.646-7.175.287-1.012 3.454-7.867-1.73-12.766-1.123-1.06-12.879-.52-13.765-.157-2.59 1.06-4.05 4.828-4.376 11.304z"/>
                        <path fill="#FFF" d="M7.362 17.412c3.535.011 6.594-.138 9.175-.447-.785 3.664-2.436 5.497-4.953 5.497-2.516 0-3.924-1.683-4.222-5.05z"/>
                        <path fill="#61666D" d="M7.032 17.33c2.137-.864 3.466-1.204 3.987-1.02.781.275.512.469 1.161-.032.65-.502 3.528-.258 4.56.211-2.198.728-3.844 1.14-4.94 1.234-1.062.092-2.651-.039-4.768-.392z"/>
                        <path fill="#61666D" d="M7.032 17.241c1.02 3.263 2.619 4.895 4.794 4.895 3.264 0 4.915-3.899 4.915-5.461-1.829 2.162-3.547 3.243-5.157 3.243-1.609 0-3.127-.892-4.552-2.677z"/>
                        <path fill="#9098A3" d="M12.263.004c-3.9.108-9.01 0-11.162 7.615-.793 2.808-1.157 6.1-1.094 9.879 2.002.008 3.084.008 3.245 0 .778-.042-1.512-6.21 1.564-10.186 1.218-1.574 13.076-1.958 14.893.233 1.722 2.076.984 6.916.111 9.615 2.57-.134 3.878-.288 3.926-.461.395-4.301-.008-7.933-1.206-10.894C21.43 3.067 16.85-.123 12.263.004z"/>
                        <path fill="#FFF" d="M21.806 14.095c-.253.318-.267.237-.243.752.038.814 2.043-.487.196-.746M19.46 5.643c.406 0 .735-.398.735-.67 0-.27-.502-.401-.908-.401-.407 0-.563.309-.563.58 0 .271.33.491.736.491zM3.952 6.405c.406 0 .736-.398.736-.67 0-.27-.503-.401-.909-.401s-.563.309-.563.58c0 .271.33.491.736.491zM14.368 2.108c-.545.324-.712 1.524.222 1.16.694-.27.412-1.617-.31-1.131M22.097 9.524c-.299.363-.314.27-.286.86.045.93 2.404-.557.23-.854M1.754 14.294c-.452.92.235 1.41.878.691.708-.792-.154-1.326-.852-.768l-.026.077zM7.135 2.72c-1.305 1.41 1.52.917.818.101-.088-.102-.24-.133-.371-.147-.221-.024-.444.022-.666.033M1.124 10.694c.727 2.435 1.825-2.317.074-.01l-.074.01zM11.216 4.09c.728 2.436 1.825-2.317.074-.01l-.074.01z"/>
                        <ellipse cx="16.263" cy="14.667" fill="#A8A8A8" filter="url(#ny14hfr0xa)" rx="1.477" ry="1"/>
                        <ellipse cx="7.032" cy="14.667" fill="#A8A8A8" filter="url(#rvlxu2kqhb)" rx="1.477" ry="1"/>
                        <path fill="#61666D" d="M19.34 9.385c-1.265-.44-1.434-.547-3.48-.475-1.231.043-2.112-.074-2.422.946-.018.06.006.137.049.185.353.394 3.996.21 4.698.147.439-.04 1.676-.39.82-.853M16.312 11.324c-1.167-.223-1.375 1.344-.477 1.498.525.09 1.258-1.628-.106-1.476"/>
                        <path fill="#61666D" d="M10.724 9.385c-1.264-.44-1.433-.547-3.478-.475-1.232.043-2.113-.074-2.423.946-.019.06.006.137.049.185.353.394 3.995.21 4.697.147.44-.04 1.677-.39.82-.853" transform="translate(7.770272, 9.587562) scale(-1, 1) translate(-7.770272, -9.587562)"/>
                        <path fill="#61666D" d="M8.435 11.324c-1.167-.223-1.375 1.344-.477 1.498.525.09 1.258-1.628-.106-1.476" transform="translate(8.016426, 12.063752) scale(-1, 1) translate(-8.016426, -12.063752)"/>
                    </g>
                </g>
            </g>
        </g>
    </g>
</svg>
