<svg xmlns="http://www.w3.org/2000/svg" xmlns:xlink="http://www.w3.org/1999/xlink" width="54" height="54" viewBox="0 0 54 54">
    <defs>
        <filter id="wr3zv5d1pa" width="118.8%" height="118.8%" x="-9.4%" y="-9.4%" filterUnits="objectBoundingBox">
            <feOffset in="SourceAlpha" result="shadowOffsetOuter1"/>
            <feGaussianBlur in="shadowOffsetOuter1" result="shadowBlurOuter1" stdDeviation="1.5"/>
            <feComposite in="shadowBlurOuter1" in2="SourceAlpha" operator="out" result="shadowBlurOuter1"/>
            <feColorMatrix in="shadowBlurOuter1" values="0 0 0 0 0 0 0 0 0 0 0 0 0 0 0 0 0 0 0.3 0"/>
        </filter>
        <circle id="6ms7yy05tb" cx="24" cy="24" r="24"/>
    </defs>
    <g fill="none" fill-rule="evenodd">
        <g>
            <g>
                <g transform="translate(-293.000000, -2828.000000) translate(296.000000, 2831.000000)">
                    <use fill="#000" filter="url(#wr3zv5d1pa)" xlink:href="#6ms7yy05tb"/>
                    <use fill="#FFF" fill-opacity=".8" xlink:href="#6ms7yy05tb"/>
                </g>
                <text fill="#000" font-family="AppleSDGothicNeo-Regular, Apple SD Gothic Neo" font-size="12" transform="translate(-293.000000, -2828.000000) translate(296.000000, 2831.000000)">
                    <tspan x="13" y="37">TOP</tspan>
                </text>
                <g>
                    <path fill="#000" d="M8.8 4.067l4 5.333c.331.442.242 1.069-.2 1.4-.173.13-.384.2-.6.2H4c-.552 0-1-.448-1-1 0-.216.07-.427.2-.6l4-5.333c.331-.442.958-.532 1.4-.2.076.057.143.124.2.2z" transform="translate(-293.000000, -2828.000000) translate(296.000000, 2831.000000) translate(16.000000, 9.000000)"/>
                </g>
            </g>
        </g>
    </g>
</svg>
