<svg xmlns="http://www.w3.org/2000/svg" width="26" height="26" viewBox="0 0 26 26">
    <g fill="none" fill-rule="evenodd">
        <g>
            <g>
                <g>
                    <g>
                        <g fill="#FFF" fill-rule="nonzero">
                            <path d="M23.324 23H.676c-.373 0-.676.313-.676.7 0 .387.303.7.676.7h22.648c.373 0 .676-.313.676-.7 0-.387-.303-.7-.676-.7zM2.686 20h.136l6.528-1.419c.127-.021.245-.08.338-.169l11.06-11.047c.808-.805 1.26-1.9 1.252-3.04.001-1.15-.448-2.253-1.252-3.075C19.942.443 18.846-.007 17.704 0c-1.148-.01-2.25.455-3.044 1.284L3.634 12.33c-.098.078-.169.184-.203.304l-1.421 6.52c-.039.235.037.473.203.642.125.128.295.2.473.203zM17.704 1.352c1.625 0 2.943 1.315 2.943 2.938v.034c.011.774-.294 1.518-.846 2.061l-4.16-4.189c.548-.544 1.29-.848 2.063-.844zm-3.01 1.824l4.16 4.155-9.64 9.595-4.16-4.122 9.64-9.628zM4.513 14.156L7.861 17.5l-4.295.946.947-4.29z" transform="translate(-303.000000, -637.000000) translate(292.000000, 626.000000) translate(11.000000, 11.000000) translate(1.000000, 1.000000)"/>
                        </g>
                    </g>
                </g>
            </g>
        </g>
    </g>
</svg>
