<svg xmlns="http://www.w3.org/2000/svg" width="32" height="32" viewBox="0 0 32 32">
    <g fill="none" fill-rule="evenodd">
        <g>
            <g>
                <g transform="translate(-168.000000, -289.000000) translate(168.000000, 289.000000)">
                    <rect width="22" height="7" x="5" y="15" fill="#61666D" stroke="#61666D" stroke-width="2" rx="2"/>
                    <path fill="#61666D" d="M6 22h3v3.5c0 .828-.672 1.5-1.5 1.5S6 26.328 6 25.5V22zM23 22h3v3.5c0 .828-.672 1.5-1.5 1.5s-1.5-.672-1.5-1.5V22z"/>
                    <path fill="#72B1FF" stroke="#61666D" stroke-width="2" d="M7.247 15h17.506l-1.381-6.217C23.27 8.326 22.864 8 22.396 8H9.604c-.468 0-.874.326-.976.783L7.247 15z"/>
                    <circle cx="10.5" cy="18.5" r="1.5" fill="#FFF"/>
                    <circle cx="21.5" cy="18.5" r="1.5" fill="#FFF"/>
                </g>
            </g>
        </g>
    </g>
</svg>
