<svg xmlns="http://www.w3.org/2000/svg" width="24" height="24" viewBox="0 0 24 24">
    <g fill="none" fill-rule="evenodd">
        <g>
            <g>
                <g>
                    <g>
                        <g>
                            <path d="M0 0H24V24H0z" transform="translate(-1061.000000, -562.000000) translate(1061.000000, 370.000000) translate(0.000000, 192.000000)"/>
                            <path fill="#2E3A59" d="M11.892 3.9c-4.416 0-7.992 3.584-7.992 8s3.576 8 7.992 8c4.424 0 8.008-3.584 8.008-8s-3.584-8-8.008-8c-2.944 0-2.944 0 0 0zm.808 8.8V7.9h-1.6v4.8h1.6zm0 3.2v-1.6h-1.6v1.6h1.6zm-7.2-4c0 3.536 2.864 6.4 6.4 6.4 3.536 0 6.4-2.864 6.4-6.4 0-3.536-2.864-6.4-6.4-6.4-3.536 0-6.4 2.864-6.4 6.4 0 2.357 0 2.357 0 0z" transform="translate(-1061.000000, -562.000000) translate(1061.000000, 370.000000) translate(0.000000, 192.000000)"/>
                        </g>
                    </g>
                </g>
            </g>
        </g>
    </g>
</svg>
