<svg xmlns="http://www.w3.org/2000/svg" width="32" height="32" viewBox="0 0 32 32">
    <g fill="none" fill-rule="evenodd">
        <g>
            <g>
                <g>
                    <path fill="#FFC796" fill-rule="nonzero" stroke="#61666D" stroke-width="2" d="M16 4C9.383 4 4 9.383 4 16s5.383 12 12 12 12-5.383 12-12S22.617 4 16 4z" transform="translate(-168.000000, -235.000000) translate(168.000000, 235.000000)"/>
                    <path fill="#000" fill-rule="nonzero" d="M27.122 19.607C25.284 18.457 24 15 24 11.2c0-1.223.126-2.408.375-3.524.048-.215-.088-.43-.304-.477-.216-.047-.43.088-.477.303-.262 1.173-.394 2.417-.394 3.698 0 4.126 1.406 7.777 3.498 9.085.066.041.14.061.212.061.133 0 .264-.066.34-.188.116-.187.06-.434-.128-.55z" transform="translate(-168.000000, -235.000000) translate(168.000000, 235.000000)"/>
                    <path fill-rule="nonzero" stroke="#61666D" stroke-linecap="round" stroke-linejoin="round" stroke-width="1.4" d="M20.799 26.913c.195-1.224.601-3.792.601-5.113 0-8.114-3.79-14.696-9.4-16.954M27.596 12.97c-6.196 0-17.196.798-22.56 7.376M15.275 27.365C19.847 15.5 13.6 9.995 7.2 8.452M27.31 20.346c-4.11-2.438-4.892-10.006-2.935-12.67" transform="translate(-168.000000, -235.000000) translate(168.000000, 235.000000)"/>
                </g>
            </g>
        </g>
    </g>
</svg>
