<svg xmlns="http://www.w3.org/2000/svg" xmlns:xlink="http://www.w3.org/1999/xlink" width="25" height="24" viewBox="0 0 25 24">
    <defs>
        <path id="1l3tivtzia" d="M0 0H24V24H0z"/>
    </defs>
    <g fill="none" fill-rule="evenodd">
        <g>
            <g>
                <g>
                    <g>
                        <g>
                            <g transform="translate(-34.000000, -163.000000) translate(0.000000, 70.000000) translate(24.000000, 16.000000) translate(0.000000, 59.000000) translate(10.000000, 18.000000)">
                                <mask id="zl8rt4wo3b" fill="#fff">
                                    <use xlink:href="#1l3tivtzia"/>
                                </mask>
                                <path fill="#242629" d="M17.4 11.1c0-2.763-1.017-5.076-3.6-5.688V3.45h-3.6v1.962c-2.574.612-3.6 2.916-3.6 5.688v4.05l-1.8.9v1.8h14.4v-1.8l-1.8-.9V11.1zM12 20.55c.99 0 1.8-.81 1.8-1.8h-3.6c0 .99.81 1.8 1.8 1.8.66 0 .66 0 0 0zm3.6-4.5V11.1c0-2.232-.9-4.275-3.6-4.275S8.4 8.868 8.4 11.1v4.95h7.2z" mask="url(#zl8rt4wo3b)"/>
                            </g>
                        </g>
                    </g>
                </g>
            </g>
        </g>
    </g>
</svg>
