<svg xmlns="http://www.w3.org/2000/svg" width="24" height="24" viewBox="0 0 24 24">
    <g fill="none" fill-rule="evenodd">
        <g>
            <g>
                <g>
                    <g>
                        <g>
                            <path d="M0 0h24v24H0V0z" transform="translate(-339.000000, -531.000000) translate(305.000000, 297.000000) translate(24.000000, 216.000000) translate(10.000000, 18.000000)"/>
                            <g>
                                <path fill-rule="nonzero" stroke="#3B4EB6" stroke-dasharray="0 0" stroke-linecap="round" stroke-linejoin="round" stroke-width="1.4" d="M2 0h12c1.105 0 2 .895 2 2v10c0 1.105-.895 2-2 2H2c-1.105 0-2-.895-2-2V2C0 .895.895 0 2 0z" transform="translate(-339.000000, -531.000000) translate(305.000000, 297.000000) translate(24.000000, 216.000000) translate(10.000000, 18.000000) translate(4.000000, 5.000000)"/>
                                <path fill="#3B4EB6" d="M0 3h16v1.4H0V3z" transform="translate(-339.000000, -531.000000) translate(305.000000, 297.000000) translate(24.000000, 216.000000) translate(10.000000, 18.000000) translate(4.000000, 5.000000)"/>
                                <path fill="#3B4EB6" d="M4 4h1.4v10H4V4z" transform="translate(-339.000000, -531.000000) translate(305.000000, 297.000000) translate(24.000000, 216.000000) translate(10.000000, 18.000000) translate(4.000000, 5.000000)"/>
                            </g>
                        </g>
                    </g>
                </g>
            </g>
        </g>
    </g>
</svg>
