<svg xmlns="http://www.w3.org/2000/svg" width="174" height="64" viewBox="0 0 174 64">
    <defs>
        <filter id="81dlum1mqa" width="129.9%" height="200%" x="-14.9%" y="-50%" filterUnits="objectBoundingBox">
            <feOffset dx="2" dy="2" in="SourceAlpha" result="shadowOffsetOuter1"/>
            <feGaussianBlur in="shadowOffsetOuter1" result="shadowBlurOuter1" stdDeviation="5"/>
            <feColorMatrix in="shadowBlurOuter1" result="shadowMatrixOuter1" values="0 0 0 0 0 0 0 0 0 0 0 0 0 0 0 0 0 0 0.5 0"/>
            <feMerge>
                <feMergeNode in="shadowMatrixOuter1"/>
                <feMergeNode in="SourceGraphic"/>
            </feMerge>
        </filter>
    </defs>
    <g fill="none" fill-rule="evenodd">
        <g>
            <g>
                <g>
                    <g filter="url(#81dlum1mqa)" transform="translate(-506.000000, -402.000000) translate(381.000000, 193.000000) translate(133.000000, 215.000000)">
                        <rect width="11" height="34" x="87.627" y="-1" fill="#FF7448" rx="5.5" transform="translate(93.127417, 16.000000) rotate(48.000000) translate(-93.127417, -16.000000)"/>
                        <rect width="43" height="10" x="64" y="2.373" fill="#CD4141" rx="5"/>
                        <rect width="43" height="10" x="64" y="35.373" fill="#FFF" rx="5"/>
                        <rect width="10" height="43" y="2.373" fill="#FFF" rx="5"/>
                        <rect width="43" height="10" x="111" y="3.373" fill="#FFF" rx="5"/>
                        <rect width="43" height="10" x="111" y="19.373" fill="#FFF" rx="5"/>
                        <rect width="43" height="10" x="111" y="35.373" fill="#FFF" rx="5"/>
                        <rect width="38" height="10" y="19.373" fill="#FFF" rx="5"/>
                        <rect width="10" height="43" x="30" y="2.373" fill="#FFF" rx="5"/>
                        <rect width="10" height="43" x="46" y="2.373" fill="#FFF" rx="5"/>
                    </g>
                </g>
            </g>
        </g>
    </g>
</svg>
