<svg width="154" height="50" xmlns="http://www.w3.org/2000/svg">
    <defs>
        <filter x="-14.9%" y="-46%" width="129.9%" height="192%" filterUnits="objectBoundingBox" id="a">
            <feOffset dx="2" dy="2" in="SourceAlpha" result="shadowOffsetOuter1"/>
            <feGaussianBlur stdDeviation="5" in="shadowOffsetOuter1" result="shadowBlurOuter1"/>
            <feColorMatrix values="0 0 0 0 0 0 0 0 0 0 0 0 0 0 0 0 0 0 0.5 0" in="shadowBlurOuter1" result="shadowMatrixOuter1"/>
            <feMerge>
                <feMergeNode in="shadowMatrixOuter1"/>
                <feMergeNode in="SourceGraphic"/>
            </feMerge>
        </filter>
    </defs>
    <g filter="url(#a)" fill="none" fill-rule="evenodd">
        <rect fill="#FFC148" transform="rotate(38 90.726 18)" x="85.226" width="11" height="36" rx="5.5"/>
        <rect fill="#CD4141" transform="rotate(-13 86.5 9.749)" x="68" y="4.749" width="37" height="10" rx="5"/>
        <rect fill="#FFF" x="64" y="39.914" width="43" height="10" rx="5"/>
        <rect fill="#FFF" y="6.914" width="10" height="43" rx="5"/>
        <path d="M116 6.914h33a5 5 0 1 1 0 10h-33a5 5 0 1 1 0-10zm0 16h33a5 5 0 1 1 0 10h-33a5 5 0 1 1 0-10zm0 17h33a5 5 0 1 1 0 10h-33a5 5 0 1 1 0-10z" fill="#FFF"/>
        <rect fill="#FFF" y="23.914" width="38" height="10" rx="5"/>
        <rect fill="#FFF" x="30" y="6.914" width="10" height="43" rx="5"/>
        <rect fill="#FFF" x="46" y="6.914" width="10" height="43" rx="5"/>
    </g>
</svg>
