<svg width="154" height="50" xmlns="http://www.w3.org/2000/svg">
    <g fill="none" fill-rule="evenodd">
        <rect fill="#FFC148" transform="rotate(38 90.726 18)" x="85.226" width="11" height="36" rx="5.5"/>
        <rect fill="#CD4141" transform="rotate(-13 86.5 9.749)" x="68" y="4.749" width="37" height="10" rx="5"/>
        <rect fill="#1D2858" x="64" y="39.914" width="43" height="10" rx="5"/>
        <rect fill="#1D2858" y="6.914" width="10" height="43" rx="5"/>
        <path d="M116 6.914h33a5 5 0 1 1 0 10h-33a5 5 0 1 1 0-10zm0 16h33a5 5 0 1 1 0 10h-33a5 5 0 1 1 0-10zm0 17h33a5 5 0 1 1 0 10h-33a5 5 0 1 1 0-10z" fill="#1D2858"/>
        <rect fill="#1D2858" y="23.914" width="38" height="10" rx="5"/>
        <rect fill="#1D2858" x="30" y="6.914" width="10" height="43" rx="5"/>
        <rect fill="#1D2858" x="46" y="6.914" width="10" height="43" rx="5"/>
    </g>
</svg>
